<?xml version="1.0" standalone="no"?>
<!DOCTYPE svg PUBLIC "-//W3C//DTD SVG 20010904//EN"
 "http://www.w3.org/TR/2001/REC-SVG-20010904/DTD/svg10.dtd">
<svg version="1.0" xmlns="http://www.w3.org/2000/svg"
 width="798.000000pt" height="312.000000pt" viewBox="0 0 798.000000 312.000000"
 preserveAspectRatio="xMidYMid meet">

<g transform="translate(0.000000,312.000000) scale(0.100000,-0.100000)"
fill="#000000" stroke="none">
<path d="M710 3058 c71 -88 113 -185 92 -213 -4 -6 -37 -32 -74 -58 -37 -26
-86 -70 -110 -98 -24 -28 -56 -58 -73 -66 -70 -35 -115 -97 -115 -158 0 -33
-13 -50 -134 -178 -192 -205 -203 -218 -216 -266 -13 -50 -7 -103 16 -126 9
-9 33 -15 59 -15 l43 0 7 -45 c3 -25 16 -57 29 -72 20 -23 25 -24 47 -13 13 7
50 36 81 65 90 81 151 107 271 116 141 11 175 18 231 46 36 19 52 34 65 64 9
21 19 39 24 39 10 0 9 -74 -4 -150 -19 -117 -50 -170 -158 -266 -174 -156
-301 -308 -380 -454 -50 -93 -71 -173 -71 -267 l0 -72 517 6 c391 5 514 3 509
-5 -5 -9 -152 -12 -565 -12 l-558 0 -11 -39 c-15 -47 -15 -85 -1 -134 l10 -37
734 0 734 0 7 36 c8 44 -3 143 -18 161 -6 7 -31 13 -58 13 -25 0 -49 2 -51 4
-3 3 17 72 43 153 114 349 177 675 185 949 11 362 -47 534 -247 735 -91 92
-164 146 -276 203 -62 31 -240 96 -265 96 -6 0 1 -15 14 -32 49 -65 74 -138
47 -138 -5 0 -10 13 -10 28 0 31 -43 102 -87 144 -57 54 -219 118 -300 118
l-33 0 50 -62z m-169 -599 c-27 -25 -31 -33 -20 -40 21 -14 66 -2 115 31 53
35 64 38 38 9 -47 -52 -147 -76 -175 -43 -11 14 -8 20 21 45 47 38 64 36 21
-2z m487 -656 c-30 -71 -127 -231 -176 -289 -31 -39 -81 -83 -121 -108 -41
-27 -93 -74 -135 -122 -79 -92 -111 -143 -142 -228 -13 -35 -23 -51 -23 -39
-3 91 177 341 282 395 82 42 198 187 278 351 32 64 61 96 37 40z"/>
<path d="M5865 2215 c-14 -13 -25 -33 -25 -45 0 -15 -6 -20 -25 -20 -19 0 -37
-15 -73 -62 -63 -83 -200 -242 -302 -353 -46 -49 -110 -119 -143 -154 l-59
-63 -76 -9 c-131 -14 -171 -27 -193 -63 -23 -37 -25 -82 -4 -90 9 -3 42 1 76
10 107 27 105 19 -31 -117 -266 -265 -558 -439 -738 -439 -165 0 -175 175 -27
458 73 140 151 246 260 351 101 98 168 141 264 171 116 37 191 19 191 -44 0
-76 -82 -247 -158 -328 -30 -33 -43 -54 -40 -70 14 -98 189 103 255 294 30 87
34 178 10 224 -52 99 -238 80 -424 -43 -203 -133 -434 -429 -524 -672 -28 -74
-33 -100 -33 -181 -1 -83 2 -100 23 -137 143 -250 624 -49 1109 462 l100 106
117 20 c65 11 119 18 121 16 2 -2 -20 -62 -50 -134 -67 -159 -80 -206 -74
-283 5 -67 22 -93 75 -111 48 -16 95 -4 149 38 42 32 49 34 59 19 25 -33 55
-18 159 82 109 105 177 162 195 162 7 0 11 -26 11 -70 0 -57 4 -74 20 -90 42
-42 66 -29 193 102 l119 123 -5 -40 c-3 -22 -11 -65 -18 -96 -11 -50 -11 -60
4 -83 21 -31 66 -35 124 -11 20 8 37 14 38 13 1 -2 8 -18 15 -36 27 -70 89
-57 185 38 33 33 63 60 65 60 3 0 4 -24 2 -53 -7 -101 55 -134 157 -83 70 36
111 73 111 102 0 38 -25 39 -78 5 -81 -52 -101 -38 -77 54 18 69 68 170 107
214 28 32 29 34 11 53 -49 54 -146 67 -221 29 -69 -35 -157 -133 -235 -262
-16 -27 -54 -41 -89 -31 -23 6 -22 14 16 117 33 90 33 120 1 141 -49 32 -118
-11 -236 -148 -31 -36 -60 -64 -63 -61 -3 4 -6 39 -6 78 0 82 -15 105 -68 105
-33 0 -54 -15 -171 -122 -66 -61 -91 -78 -91 -63 0 14 53 107 84 148 20 26 36
56 36 68 0 32 -19 59 -42 59 -37 0 -85 -69 -153 -219 -37 -80 -74 -150 -82
-156 -9 -5 -41 -31 -71 -58 -89 -76 -122 -59 -108 57 7 65 34 144 89 262 46
101 50 104 146 104 56 0 93 23 89 53 -3 20 -10 22 -68 24 -36 1 -68 2 -73 2
-10 1 31 82 178 351 68 124 129 245 136 269 12 41 12 45 -10 62 -35 29 -105
26 -136 -6z m-191 -446 c-58 -123 -109 -227 -112 -230 -10 -10 -182 -20 -182
-12 0 5 55 71 121 148 67 77 155 182 196 233 42 51 77 91 80 89 2 -2 -44 -105
-103 -228z m1206 -393 c0 -22 -81 -125 -153 -193 -89 -86 -101 -83 -61 14 23
58 164 193 201 193 7 0 13 -6 13 -14z"/>
<path d="M2715 2151 c-269 -48 -579 -180 -727 -310 -101 -89 -117 -221 -25
-197 20 5 29 16 37 47 23 86 164 186 382 273 304 121 583 145 663 56 30 -34
25 -113 -11 -181 -34 -64 -169 -204 -237 -247 -46 -29 -49 -30 -155 -25 -155
7 -261 -24 -375 -111 l-46 -35 32 52 c54 88 202 280 282 365 43 46 75 89 75
100 0 28 -37 52 -80 52 -59 0 -150 -90 -150 -147 0 -10 -15 -36 -32 -58 -69
-82 -180 -244 -239 -349 -86 -151 -119 -239 -126 -340 -5 -78 -5 -83 22 -114
29 -35 80 -54 108 -40 13 7 17 4 17 -11 0 -82 141 -64 367 45 174 85 305 184
364 275 55 86 49 169 -18 241 l-25 26 28 18 c144 91 259 207 310 311 36 73 44
164 19 217 -45 95 -223 129 -460 87z m-145 -681 c-56 -31 -187 -80 -212 -80
-16 1 -1 12 47 37 78 41 138 62 175 62 23 0 22 -1 -10 -19z m194 -32 c23 -33
19 -69 -13 -119 -32 -50 -101 -119 -101 -101 0 6 -9 16 -20 22 -16 8 -40 4
-110 -19 -159 -54 -312 -143 -353 -206 -24 -37 -37 -44 -37 -20 0 9 -11 20
-25 25 -18 7 -25 17 -25 37 0 52 30 157 67 236 36 76 53 95 53 58 0 -29 38
-51 88 -51 54 0 127 25 295 99 72 33 140 60 149 60 9 1 24 -9 32 -21z m-169
-284 c-111 -92 -346 -213 -345 -177 1 15 124 100 200 138 132 66 199 84 145
39z"/>
<path d="M3102 1475 c-19 -8 -64 -45 -101 -82 -75 -75 -119 -155 -128 -232 -7
-64 22 -133 68 -156 64 -34 191 -4 270 62 36 31 43 27 27 -15 -17 -44 -2 -66
46 -70 36 -3 43 2 149 105 125 122 173 163 190 163 8 0 12 -29 13 -93 0 -51 6
-102 13 -114 15 -30 53 -38 103 -24 49 15 178 138 178 170 0 35 -36 31 -96
-10 -68 -46 -74 -42 -74 50 0 91 -10 125 -41 142 -37 20 -87 -5 -193 -96 -55
-47 -101 -83 -104 -81 -2 3 12 42 32 88 41 96 43 113 17 128 -39 20 -63 -5
-117 -119 -48 -102 -53 -108 -77 -104 -20 4 -40 -6 -84 -40 -94 -74 -171 -97
-193 -58 -5 11 -10 22 -10 24 0 3 37 27 83 53 45 27 99 64 120 83 59 53 94
132 77 175 -19 51 -109 78 -168 51z m62 -130 c-21 -32 -134 -121 -134 -105 0
21 34 62 89 107 56 46 76 45 45 -2z"/>
<path d="M7251 1457 c-26 -32 -191 -394 -191 -420 0 -56 28 -79 74 -61 9 3 28
29 42 58 39 78 128 189 191 238 50 38 62 43 109 43 65 0 104 30 104 81 0 72
-105 54 -235 -40 -27 -20 -53 -36 -56 -36 -3 0 3 26 14 58 11 32 18 66 14 75
-8 20 -50 23 -66 4z"/>
<path d="M7748 1456 c-86 -23 -194 -134 -270 -277 -52 -96 -51 -171 2 -199 30
-16 77 9 153 80 l67 62 0 -61 c0 -73 21 -101 73 -101 65 0 197 87 197 130 0
32 -31 32 -83 0 -67 -42 -82 -37 -80 23 1 54 51 170 102 236 37 50 35 64 -15
92 -42 24 -93 29 -146 15z m52 -74 c0 -33 -200 -262 -229 -262 -35 0 32 133
95 189 74 66 134 99 134 73z"/>
<path d="M390 542 l0 -98 -63 -27 c-35 -15 -79 -41 -98 -57 l-34 -29 605 -3
605 -2 -605 -6 c-333 -4 -606 -8 -607 -8 -2 -1 -3 -18 -3 -37 l0 -35 -54 0
c-85 0 -136 -54 -136 -145 0 -35 6 -52 25 -70 l24 -25 930 0 c876 0 931 1 939
18 31 60 20 135 -28 194 -30 37 -34 38 -96 38 l-64 0 0 37 c0 33 -7 45 -55 89
-30 28 -71 59 -90 68 -32 16 -35 21 -35 60 0 24 -3 64 -6 90 l-7 46 -573 0
-574 0 0 -98z"/>
</g>
</svg>
